<svg width="63" height="60" viewBox="0 0 63 60" fill="none" xmlns="http://www.w3.org/2000/svg">
<path d="M63 36.8439V60H12.8862V52.0824H29.034V44.956H44.22V36.8439H63ZM27.7938 4.16915C27.7938 6.47179 29.6748 8.33831 31.9953 8.33831C34.3158 8.33831 36.1968 6.47179 36.1968 4.16915C36.1968 1.86652 34.3158 0 31.9953 0C29.6748 0 27.7938 1.86652 27.7938 4.16915ZM46.9787 24.3364C46.5737 25.2657 45.4603 25.6423 44.5238 25.2154L36.7282 21.5736C36.2727 21.3727 35.893 20.9708 35.7412 20.4938L34.425 16.8019L32.6027 25.8475L38.751 25.973C40.067 25.998 41.1047 27.1032 41.0795 28.4091L40.7505 41.0607C40.7253 42.3666 39.637 43.3963 38.346 43.3963C38.346 43.3963 38.3208 43.3963 38.2952 43.3963C36.9538 43.3713 35.9163 42.2661 35.9415 40.9602L36.22 30.6693L28.553 30.4934L26.7812 39.2041C26.7052 39.5556 26.5535 39.9324 26.351 40.2339L19.795 49.5915C18.9597 50.7969 17.34 51.0482 16.125 50.2194C14.9355 49.3906 14.657 47.7833 15.5175 46.6027L21.7445 37.7975L25.7353 15.3578L17.7957 22.6334C17.6567 22.7607 17.5025 22.8614 17.34 22.937L18.083 23.6743L15.913 25.8276L19.5295 29.4163L16.6362 32.2873L5.06325 20.8031L7.9565 17.9321L11.573 21.5208L13.743 19.3675L14.9537 20.5687C15.046 20.3727 15.1745 20.1899 15.342 20.0318L25.287 10.6623C26.5995 9.54147 28.705 8.86522 30.5275 9.16663L32.2485 9.4931C34.5518 9.89498 36.3232 11.4522 37.0575 13.4864L38.9305 18.5848L46.0425 21.9001C46.9787 22.3022 47.3837 23.4071 46.9787 24.3364ZM16.2747 23.6743L13.743 21.1621L12.4773 22.4181L15.009 24.9303L16.2747 23.6743ZM13.743 30.8516L13.0197 31.5693L11.5732 30.1337L12.2965 29.416L7.9565 25.1094L7.23325 25.8271L5.7865 24.3915L6.50975 23.6738L4.33975 21.5205L0 25.8274L11.5732 37.3115L15.9132 33.0049L13.743 30.8516Z" fill="#0462B6"/>
</svg>
