<svg width="264" height="480" viewBox="0 0 264 480" fill="none" xmlns="http://www.w3.org/2000/svg">
<path d="M7.28577 459.698L5.39062 470.496L6.99195 470.849C14.1612 472.318 43.5286 478.062 48.5824 477.342C54.2237 476.534 32.7454 468.087 32.7454 468.087L33.4212 463.518L7.28577 459.698Z" fill="#0462B6"/>
<g opacity="0.5">
<path d="M14.9094 471.701C14.8666 469.431 13.9817 467.258 12.4266 465.604C10.905 463.937 8.80168 462.916 6.5502 462.754L5.4043 470.099L14.9094 471.701Z" fill="white"/>
</g>
<g opacity="0.5">
<path d="M43.135 472.597C43.135 472.597 50.5834 476.064 49.4228 477.195C48.2622 478.327 18.3512 473.699 5.34961 470.496L5.48183 469.923L40.2997 475.623C40.2997 475.623 41.6659 472.435 43.135 472.597Z" fill="white"/>
</g>
<path d="M5.11133 469.835C5.25194 469.895 5.40033 469.935 5.55206 469.953L6.83019 470.232L11.5607 471.172C15.5567 471.951 21.0952 472.935 27.2214 473.89C33.3476 474.845 38.9742 475.58 42.9849 476.064L47.7742 476.608L49.0817 476.74H49.5371L49.0817 476.652L47.7889 476.476L43.0143 475.829C38.9742 475.286 33.4063 474.507 27.2801 473.552C21.154 472.597 15.5273 471.642 11.6048 470.937L6.85957 470.1L5.56675 469.88L5.11133 469.835Z" fill="#263238"/>
<path d="M40.2656 476.02C40.604 475.267 41.0227 474.553 41.5144 473.89C42.0847 473.296 42.7205 472.769 43.4095 472.318C42.5489 472.489 41.7837 472.977 41.2646 473.684C40.6621 474.318 40.3076 475.147 40.2656 476.02Z" fill="#263238"/>
<path d="M33.1565 470.907C33.1565 470.907 33.656 470.57 34.1408 470.026C34.6256 469.482 34.9341 468.998 34.8754 468.939C34.8166 468.88 34.3612 469.277 33.8911 469.82C33.421 470.364 33.0831 470.849 33.1565 470.907Z" fill="#263238"/>
<path d="M31.2027 469.453C31.2027 469.453 31.7169 469.321 32.2311 468.983C32.7452 468.645 33.1125 468.322 33.0684 468.248C33.0244 468.175 32.5689 468.38 32.0548 468.718C31.5406 469.056 31.1586 469.379 31.2027 469.453Z" fill="#263238"/>
<path d="M30.0566 464.958C30.4646 465.332 30.9771 465.573 31.5257 465.648C32.0515 465.815 32.616 465.815 33.1418 465.648C32.6619 465.493 32.1707 465.375 31.6727 465.296C31.1446 465.137 30.604 465.024 30.0566 464.958Z" fill="#263238"/>
<path d="M34.3906 468.763C34.9374 468.933 35.5074 469.018 36.0801 469.013C36.6994 469.027 37.3187 468.988 37.9312 468.895C38.3019 468.845 38.6663 468.757 39.0183 468.631C39.2355 468.546 39.4135 468.384 39.5178 468.175C39.5654 468.054 39.5768 467.921 39.5507 467.794C39.5247 467.666 39.4622 467.548 39.3709 467.455C38.7778 467.043 38.0602 466.848 37.3399 466.904C36.6195 466.96 35.9408 467.264 35.419 467.764C35.1061 468.058 34.8562 468.413 34.6844 468.807C34.5816 469.086 34.5522 469.248 34.5816 469.262C34.8282 468.766 35.1616 468.319 35.5659 467.94C36.0172 467.559 36.5675 467.315 37.1525 467.235C37.4958 467.171 37.8484 467.177 38.1893 467.252C38.5301 467.328 38.8521 467.472 39.1358 467.676C39.3709 467.911 39.1358 468.219 38.8861 468.337C38.5642 468.463 38.229 468.551 37.8871 468.601C37.2908 468.711 36.6863 468.77 36.0801 468.778C35.0517 468.763 34.4053 468.763 34.3906 468.763Z" fill="#263238"/>
<path d="M34.8164 468.91C34.8164 468.91 35.1543 468.542 35.1984 467.778C35.2121 467.326 35.1163 466.878 34.9193 466.471C34.8173 466.199 34.6478 465.958 34.4267 465.771C34.2056 465.583 33.9403 465.455 33.6558 465.398C33.569 465.402 33.4837 465.423 33.405 465.46C33.3262 465.497 33.2554 465.549 33.1968 465.613C33.1381 465.677 33.0926 465.752 33.063 465.834C33.0334 465.915 33.0202 466.002 33.0241 466.089C33.0208 466.367 33.0759 466.642 33.1857 466.897C33.3497 467.298 33.5618 467.678 33.8174 468.028C34.2729 468.63 34.6548 468.895 34.6842 468.866C34.7136 468.836 34.3904 468.513 34.0084 467.911C33.7898 467.553 33.6077 467.174 33.4648 466.779C33.2886 466.397 33.2298 465.736 33.6558 465.722C34.0819 465.707 34.4492 466.236 34.6548 466.603C34.8384 466.969 34.9435 467.369 34.9633 467.778C34.9517 468.159 34.9025 468.538 34.8164 468.91Z" fill="#263238"/>
<path d="M6.75781 462.754C6.75781 462.754 7.50705 462.754 8.68234 463.122C10.1944 463.542 11.5617 464.37 12.6342 465.516C13.6824 466.685 14.3933 468.117 14.691 469.659C14.9114 470.834 14.8379 471.598 14.8967 471.598C14.954 471.428 14.9838 471.249 14.9848 471.069C15.0066 470.578 14.982 470.087 14.9114 469.6C14.6755 467.99 13.9645 466.486 12.8693 465.281C11.7528 464.094 10.3122 463.262 8.72642 462.886C8.24438 462.776 7.75189 462.717 7.25731 462.71C7.08951 462.696 6.92056 462.711 6.75781 462.754Z" fill="#263238"/>
<path d="M18.5977 469.717C19.8074 470.192 21.0703 470.517 22.3586 470.687C23.6333 470.952 24.9375 471.045 26.237 470.966C26.237 470.878 24.5182 470.716 22.4173 470.364C20.3165 470.011 18.627 469.629 18.5977 469.717Z" fill="#263238"/>
<path d="M13.4717 468.91C13.3982 468.91 13.5598 469.292 13.6626 469.718C13.7655 470.144 13.8243 470.496 13.9124 470.511C14.0005 470.526 14.1181 470.114 13.9124 469.63C13.7067 469.145 13.5304 468.851 13.4717 468.91Z" fill="#263238"/>
<path d="M11.9141 466.207C11.9141 466.207 11.9141 466.559 12.1932 466.868C12.4723 467.176 12.6633 467.397 12.7368 467.353C12.8102 467.309 12.7368 467 12.4576 466.677C12.1785 466.354 11.9875 466.148 11.9141 466.207Z" fill="#263238"/>
<path d="M9.3418 464.678C9.3418 464.766 9.69438 464.81 10.0617 465.016C10.4289 465.222 10.664 465.457 10.7374 465.413C10.8109 465.369 10.7374 464.957 10.2086 464.722C9.67969 464.487 9.3418 464.59 9.3418 464.678Z" fill="#263238"/>
<path d="M7.41992 463.856C7.41992 463.856 7.50807 464.091 7.71374 464.209C7.91942 464.326 8.1251 464.356 8.16917 464.282C8.21324 464.209 8.08102 464.047 7.87535 463.93C7.66967 463.812 7.464 463.768 7.41992 463.856Z" fill="#263238"/>
<path d="M145.088 468.924L146.072 479.854L147.718 479.78C155.063 479.369 184.857 477.195 189.558 475.182C194.788 472.934 171.928 470.393 171.928 470.393L171.385 465.809L145.088 468.924Z" fill="#0462B6"/>
<g opacity="0.5">
<path d="M155.592 478.591C154.957 476.411 153.539 474.543 151.61 473.346C149.715 472.151 147.439 471.71 145.234 472.112L146.057 479.458L155.592 478.591Z" fill="white"/>
</g>
<g opacity="0.5">
<path d="M183.11 472.024C183.11 472.024 191.205 473.405 190.368 474.816C189.53 476.226 159.517 479.546 146.074 479.855V479.267L181.23 475.668C181.23 475.668 181.583 472.259 183.11 472.024Z" fill="white"/>
</g>
<path d="M145.633 479.296H146.088L147.396 479.223L152.214 478.899C156.269 478.591 161.866 478.106 168.051 477.43C174.236 476.755 179.804 475.961 183.83 475.418L188.575 474.639L189.868 474.419C190.016 474.399 190.163 474.369 190.308 474.331H189.853L188.575 474.639L183.786 475.271C179.76 475.8 174.178 476.505 168.007 477.181C161.837 477.856 156.254 478.385 152.185 478.753L147.44 479.046L146.132 479.164L145.633 479.296Z" fill="#263238"/>
<path d="M181.227 476.108C181.342 475.292 181.554 474.493 181.859 473.728C182.272 473.005 182.765 472.33 183.328 471.715C182.547 472.114 181.936 472.782 181.609 473.596C181.166 474.354 181.029 475.253 181.227 476.108Z" fill="#263238"/>
<path d="M172.986 473.008C173.06 473.008 173.383 472.553 173.706 471.892C173.939 471.518 174.085 471.096 174.132 470.658C174.132 470.658 173.736 471.113 173.412 471.76C173.089 472.406 172.898 472.964 172.986 473.008Z" fill="#263238"/>
<path d="M170.725 472.112C170.798 472.112 171.18 471.848 171.592 471.392C172.003 470.937 172.268 470.511 172.209 470.452C172.15 470.393 171.753 470.717 171.342 471.172C170.931 471.628 170.666 472.054 170.725 472.112Z" fill="#263238"/>
<path d="M169.109 469.776C169.568 469.888 170.047 469.888 170.505 469.776C170.972 469.782 171.434 469.681 171.857 469.482C171.375 469.358 170.869 469.358 170.387 469.482C169.945 469.487 169.509 469.587 169.109 469.776Z" fill="#263238"/>
<path d="M168.447 468.072C168.935 468.326 169.489 468.423 170.034 468.351C170.582 468.388 171.127 468.249 171.591 467.954C171.066 467.932 170.54 467.956 170.019 468.028C169.495 467.994 168.969 468.008 168.447 468.072Z" fill="#263238"/>
<path d="M173.621 470.599C174.191 470.639 174.764 470.574 175.311 470.408C175.917 470.267 176.507 470.065 177.073 469.806C177.42 469.667 177.751 469.49 178.058 469.277C178.247 469.139 178.378 468.934 178.425 468.704C178.434 468.574 178.407 468.443 178.348 468.327C178.288 468.21 178.198 468.112 178.087 468.043C177.406 467.804 176.664 467.806 175.984 468.049C175.305 468.293 174.73 468.763 174.356 469.38C174.124 469.739 173.978 470.146 173.93 470.57C173.892 470.725 173.892 470.886 173.93 471.04C174.051 470.519 174.26 470.023 174.547 469.571C174.871 469.078 175.337 468.694 175.884 468.469C176.199 468.321 176.54 468.237 176.888 468.222C177.236 468.207 177.584 468.261 177.911 468.381C178.205 468.543 178.131 468.881 177.911 469.086C177.631 469.289 177.331 469.461 177.015 469.6C176.465 469.86 175.895 470.077 175.311 470.247C174.267 470.482 173.621 470.555 173.621 470.599Z" fill="#263238"/>
<path d="M174.074 470.643C174.221 470.255 174.221 469.827 174.074 469.439C173.979 469.001 173.772 468.596 173.472 468.263C173.308 468.03 173.087 467.842 172.83 467.718C172.573 467.595 172.288 467.54 172.003 467.558C171.837 467.615 171.698 467.734 171.617 467.89C171.535 468.045 171.515 468.226 171.562 468.396C171.638 468.66 171.768 468.905 171.944 469.115C172.206 469.467 172.512 469.783 172.855 470.056C173.152 470.327 173.51 470.523 173.898 470.629C173.898 470.629 173.531 470.364 173.002 469.879C172.696 469.596 172.42 469.281 172.179 468.939C171.9 468.616 171.68 467.984 172.091 467.867C172.502 467.749 172.987 468.146 173.281 468.454C173.554 468.755 173.759 469.111 173.883 469.497C173.98 469.873 174.044 470.257 174.074 470.643Z" fill="#263238"/>
<path d="M145.367 472.024C145.367 472.024 146.116 471.877 147.321 471.877C148.892 471.874 150.431 472.318 151.76 473.155C153.089 473.992 154.153 475.19 154.828 476.608C155.357 477.695 155.475 478.459 155.533 478.444C155.592 478.429 155.533 478.238 155.533 477.9C155.441 477.424 155.293 476.961 155.093 476.519C154.449 475.024 153.368 473.759 151.991 472.891C150.614 472.023 149.006 471.592 147.38 471.657C146.884 471.661 146.391 471.725 145.911 471.848C145.722 471.879 145.539 471.938 145.367 472.024Z" fill="#263238"/>
<path d="M158.619 475.653C159.912 475.815 161.22 475.815 162.512 475.653C163.811 475.565 165.094 475.318 166.332 474.918C166.332 474.816 164.598 475.124 162.483 475.33C160.367 475.535 158.619 475.55 158.619 475.653Z" fill="#263238"/>
<path d="M153.463 476.211C153.463 476.285 153.639 476.564 153.86 476.931C154.08 477.299 154.212 477.651 154.315 477.637C154.418 477.622 154.403 477.21 154.139 476.77C153.874 476.329 153.507 476.109 153.463 476.211Z" fill="#263238"/>
<path d="M151.242 474.007C151.242 474.081 151.389 474.33 151.698 474.58C152.006 474.83 152.285 474.962 152.344 474.903C152.403 474.845 152.197 474.58 151.903 474.33C151.609 474.081 151.301 473.934 151.242 474.007Z" fill="#263238"/>
<path d="M148.349 473.17C148.349 473.258 148.716 473.17 149.128 473.302C149.539 473.435 149.833 473.582 149.892 473.508C149.95 473.435 149.686 473.097 149.187 472.994C148.687 472.891 148.305 473.17 148.349 473.17Z" fill="#263238"/>
<path d="M146.307 472.906C146.307 472.994 146.454 473.111 146.674 473.17C146.894 473.229 147.1 473.17 147.129 473.17C147.159 473.17 146.982 472.964 146.762 472.906C146.542 472.847 146.321 472.818 146.307 472.906Z" fill="#263238"/>
<path d="M152.758 54.4746C150.657 43.236 138.244 36.9923 133.395 26.5616C131.5 22.5363 130.825 17.9967 128.753 14.0595C126.389 9.90643 122.622 6.73105 118.129 5.10238C113.636 3.47371 108.71 3.49819 104.234 5.17142L103.455 6.37608C108.479 16.9243 113.489 24.167 118.499 34.7005C120.447 38.3026 121.797 42.1976 122.495 46.2329C122.95 50.3024 121.863 54.7685 118.719 57.3835C116.192 59.4696 112.843 60.1013 110.051 61.923C108.047 63.4251 106.478 65.4328 105.505 67.7405C104.532 70.0483 104.189 72.5732 104.513 75.0568C105.236 80.0455 107.525 84.6756 111.05 88.2788C114.282 91.8193 119.395 94.8457 123.655 92.6861C125.815 91.5696 127.152 89.3953 128.738 87.5589C132 83.8127 136.495 81.4328 140.491 78.4945C148.16 72.9266 154.507 63.8328 152.758 54.4746Z" fill="#263238"/>
<path d="M260.796 106.716C257.975 109.287 242.623 122.186 242.623 122.186L227.389 108.317C227.785 107.186 231.517 100.781 231.943 99.1795C232.319 97.7977 232.448 96.3605 232.325 94.9338C232.252 93.1557 231.936 91.3959 231.385 89.7038C230.709 88.2347 232.207 86.6774 233.5 87.412C234.793 88.1465 236.732 92.2306 236.673 97.49C236.615 102.749 257.241 90.6734 260.179 93.6263L260.796 106.716Z" fill="#FFBE9D"/>
<path d="M129.809 86.0166L180.346 146.5L226.77 104.542L247.014 124.287C247.014 124.287 188.764 188.384 179.876 187.929C170.988 187.473 140.798 167.508 140.798 167.508L129.809 86.0166Z" fill="#0462B6"/>
<path d="M244.532 77.0106C244.331 76.9435 244.112 76.9565 243.92 77.0468C243.729 77.1371 243.579 77.2978 243.503 77.4954L229.708 112.137C229.583 112.448 229.582 112.795 229.705 113.106C229.828 113.418 230.066 113.67 230.369 113.812L246.676 121.598C246.837 121.673 247.011 121.716 247.189 121.723C247.366 121.729 247.543 121.7 247.709 121.637C247.875 121.574 248.026 121.478 248.154 121.356C248.282 121.233 248.384 121.085 248.454 120.922L263.894 85.0173C263.965 84.851 264 84.6721 263.999 84.4915C263.998 84.3109 263.959 84.1326 263.886 83.9674C263.813 83.8022 263.707 83.6537 263.575 83.5311C263.442 83.4085 263.286 83.3143 263.116 83.2543L244.532 77.0106Z" fill="#263238"/>
<path d="M244.091 79.5083L231.457 110.418L248.543 118.161L261.486 85.3847L244.091 79.5083Z" fill="#F5F5F5"/>
<path d="M239.17 133.292C237.89 132.564 236.685 131.713 235.57 130.751C233.44 129.061 230.59 126.623 227.608 123.729C224.625 120.834 222.128 118.028 220.38 115.942C219.382 114.868 218.5 113.691 217.75 112.431C218.834 113.414 219.85 114.469 220.791 115.59C222.627 117.573 225.198 120.291 228.137 123.17C231.075 126.05 233.866 128.547 235.908 130.325C237.062 131.238 238.152 132.229 239.17 133.292Z" fill="#263238"/>
<path d="M224.639 110.448C224.742 110.536 224.11 111.036 224.184 112.108C224.202 112.391 224.278 112.667 224.407 112.92C224.536 113.172 224.715 113.396 224.933 113.577C225.225 113.764 225.563 113.868 225.91 113.877C226.257 113.887 226.599 113.802 226.902 113.631C227.204 113.46 227.454 113.211 227.624 112.909C227.795 112.607 227.881 112.264 227.871 111.917C227.83 111.621 227.726 111.336 227.566 111.083C227.407 110.83 227.195 110.613 226.946 110.448C226.435 110.159 225.858 110.007 225.271 110.007C225.271 110.007 225.403 109.831 225.756 109.758C226.256 109.652 226.777 109.731 227.225 109.978C227.571 110.151 227.873 110.401 228.108 110.709C228.342 111.018 228.502 111.375 228.576 111.756C228.623 112.241 228.528 112.73 228.304 113.163C228.08 113.596 227.736 113.956 227.313 114.199C226.89 114.443 226.407 114.559 225.919 114.535C225.432 114.51 224.962 114.346 224.566 114.062C224.271 113.811 224.039 113.494 223.888 113.137C223.738 112.779 223.673 112.392 223.699 112.005C223.715 111.496 223.907 111.008 224.243 110.624C224.419 110.477 224.625 110.419 224.639 110.448Z" fill="#263238"/>
<path d="M178.377 164.173C177.971 163.349 177.717 162.458 177.628 161.544C176.912 157.176 177.421 152.696 179.097 148.601C179.384 147.727 179.832 146.914 180.419 146.206C179.438 149.076 178.706 152.025 178.23 155.021C178.018 158.07 178.067 161.132 178.377 164.173Z" fill="#263238"/>
<path d="M185.635 163.703C184.958 163.054 184.405 162.288 184.004 161.44C181.742 157.514 180.462 153.099 180.273 148.571C180.162 147.638 180.216 146.693 180.434 145.78C180.798 148.891 181.353 151.977 182.094 155.02C183.092 157.986 184.275 160.886 185.635 163.703Z" fill="#263238"/>
<path d="M244.387 85.2676L236.027 106.055L248.544 111.183L257.271 89.9393L244.387 85.2676Z" fill="#EBEBEB"/>
<path d="M247.896 105.763L240.495 102.67C239.949 102.441 239.321 102.699 239.092 103.246L238.951 103.585C238.722 104.131 238.98 104.759 239.527 104.988L246.928 108.081C247.474 108.309 248.102 108.051 248.331 107.505L248.472 107.166C248.701 106.619 248.443 105.991 247.896 105.763Z" fill="#0462B6"/>
<path d="M254.593 92.1619L245.312 88.668L244.805 90.0154L254.086 93.5093L254.593 92.1619Z" fill="#455A64"/>
<path d="M253.327 96.8477L243.07 92.9863L242.071 95.6399L252.328 99.5013L253.327 96.8477Z" fill="#E0E0E0"/>
<path d="M251.626 101.102L241.369 97.2402L240.37 99.8938L250.627 103.755L251.626 101.102Z" fill="#E0E0E0"/>
<path d="M260.249 93.6265C257.884 94.0084 255.004 94.2435 252.639 94.6402C251.962 94.7007 251.309 94.9169 250.729 95.2719C250.456 95.4739 250.261 95.7644 250.178 96.0939C250.095 96.4234 250.129 96.7715 250.274 97.0789C250.641 97.74 251.581 97.7987 252.345 97.784L257.561 97.6078C255.335 97.7081 253.13 98.0781 250.994 98.7096C250.024 99.0328 248.937 99.6939 248.908 100.722C248.95 101.168 249.146 101.584 249.463 101.901C249.779 102.217 250.196 102.413 250.641 102.456C251.551 102.513 252.464 102.513 253.374 102.456C253.374 102.456 256.944 102.456 257.09 102.985C254.872 102.985 251.919 103.44 249.745 103.646C249.128 103.646 248.849 104.527 248.702 105.115C248.622 105.409 248.643 105.722 248.76 106.004C248.877 106.285 249.084 106.52 249.348 106.672C249.632 106.767 249.933 106.797 250.23 106.76L258.868 106.496" fill="#FFBE9D"/>
<path d="M111.945 82.388C111.945 82.388 122.449 81.154 129.824 86.002C136.479 90.4093 159.838 157.312 158.927 177.175C158.016 197.037 160.558 232.061 164.642 246.487C168.726 260.914 171.811 386.052 139.667 445.669L79.8008 437.265L98.5172 276.501L96.6074 130.663L111.945 82.388Z" fill="#0462B6"/>
<g opacity="0.3">
<path d="M108.491 82.388C108.491 82.388 119.01 81.154 126.385 86.002C133.04 90.4093 156.384 157.312 155.488 177.175C154.592 197.037 157.104 232.061 161.203 246.487C165.302 260.914 168.372 386.052 136.228 445.669L81.5039 437.265L95.0784 276.501L93.0805 130.678L108.491 82.388Z" fill="black"/>
</g>
<path d="M86.4869 79.3174C86.4869 79.3174 53.5642 75.7769 62.3641 122.832L70.8262 172.341L124.581 204.867C131.838 206.821 125.668 171.078 136.598 154.536C140.697 148.351 141.005 143.723 140.697 140.873C141.74 130.075 133.087 123.347 131.882 112.431C130.531 96.6235 130.589 87.8676 123.714 86.09L86.5162 79.3174" fill="#455A64"/>
<path d="M132.485 108.67C131.922 110.947 131.922 113.327 132.485 115.604C133.139 118.068 134.127 120.431 135.423 122.627C137.042 125.344 138.446 128.183 139.625 131.118C141.536 136.631 141.613 142.614 139.845 148.175C139.322 149.836 138.622 151.436 137.759 152.949C137.462 153.52 137.097 154.053 136.672 154.536C137.73 152.436 138.619 150.254 139.331 148.013C140.892 142.556 140.743 136.752 138.905 131.383C137.739 128.483 136.37 125.67 134.806 122.965C133.527 120.7 132.587 118.259 132.015 115.722C131.634 114.002 131.604 112.224 131.926 110.492C132.016 110.021 132.149 109.558 132.323 109.111C132.382 108.832 132.455 108.656 132.485 108.67Z" fill="#263238"/>
<path d="M116 82.7107C115.221 74.6159 114.53 66.0804 114.53 66.0804C114.53 66.0804 124.814 63.3185 125.608 49.4942C126.386 36.2723 122.405 13.3542 122.405 13.3542V12.1936C106.788 7.55123 88.3069 7.78629 78.7871 20.8026L86.1326 86.4716C86.9994 94.0963 94.2274 99.4438 102.381 98.4595C110.711 97.4752 116.734 90.4235 116 82.7107Z" fill="#FFBE9D"/>
<path d="M122.464 30.0284C122.511 30.4761 122.385 30.9249 122.112 31.2827C121.839 31.6406 121.439 31.8803 120.995 31.9529C120.775 31.9928 120.549 31.9881 120.33 31.9391C120.112 31.8901 119.905 31.7978 119.723 31.6677C119.541 31.5376 119.387 31.3723 119.27 31.1816C119.152 30.9908 119.075 30.7786 119.041 30.5573C118.994 30.1095 119.12 29.6607 119.393 29.3029C119.666 28.9451 120.066 28.7053 120.51 28.6327C120.73 28.5929 120.956 28.5976 121.175 28.6465C121.393 28.6955 121.6 28.7878 121.782 28.9179C121.964 29.048 122.118 29.2133 122.235 29.4041C122.352 29.5948 122.43 29.8071 122.464 30.0284Z" fill="#263238"/>
<path d="M122.464 28.1045C122.258 28.3543 120.848 27.5169 118.967 27.6932C117.087 27.8695 115.809 28.9713 115.574 28.7509C115.339 28.5306 115.574 28.2367 116.205 27.7372C116.963 27.0906 117.902 26.6953 118.894 26.606C119.871 26.5057 120.855 26.722 121.7 27.223C122.273 27.605 122.464 28.0311 122.464 28.1045Z" fill="#263238"/>
<path d="M102.896 32.5699C102.943 33.0176 102.817 33.4664 102.544 33.8243C102.271 34.1821 101.871 34.4219 101.427 34.4944C101.201 34.5339 100.969 34.5267 100.747 34.4732C100.524 34.4197 100.314 34.3211 100.131 34.1834C99.948 34.0457 99.795 33.8718 99.6818 33.6726C99.5685 33.4735 99.4973 33.2531 99.4726 33.0253C99.4254 32.5776 99.5514 32.1288 99.8245 31.771C100.098 31.4131 100.497 31.1733 100.942 31.1008C101.167 31.0613 101.399 31.0685 101.622 31.122C101.844 31.1755 102.054 31.2741 102.237 31.4118C102.42 31.5496 102.573 31.7234 102.686 31.9226C102.8 32.1218 102.871 32.3421 102.896 32.5699Z" fill="#263238"/>
<path d="M102.881 30.7192C102.69 30.9689 101.265 30.1168 99.3989 30.3078C97.5332 30.4988 96.2403 31.5712 96.0053 31.3656C95.7702 31.1599 96.0787 30.8367 96.637 30.3372C97.3961 29.6959 98.3354 29.3058 99.3255 29.2207C100.301 29.118 101.284 29.329 102.131 29.823C102.748 30.2197 102.984 30.6016 102.881 30.7192Z" fill="#263238"/>
<path d="M111.077 43.9705C112.019 43.5727 113.006 43.2914 114.016 43.1331C114.486 43.0302 114.927 42.8833 114.971 42.5601C114.975 42.0577 114.815 41.5677 114.515 41.1645L112.738 37.6533C111.122 34.6859 109.741 31.5962 108.609 28.4126C110.469 31.2384 112.095 34.211 113.472 37.3007L115.191 40.8412C115.551 41.3871 115.707 42.0426 115.632 42.6923C115.58 42.8689 115.488 43.0311 115.363 43.1663C115.238 43.3014 115.084 43.4056 114.912 43.4709C114.654 43.575 114.381 43.6393 114.104 43.6619C113.113 43.8995 112.096 44.0033 111.077 43.9705Z" fill="#263238"/>
<path d="M114.563 66.0812C108.165 66.8043 101.692 65.7416 95.8613 63.0107C95.8613 63.0107 101.194 71.9135 114.695 69.2985L114.563 66.0812Z" fill="#EB996E"/>
<path d="M110.71 48.5978C110.308 48.1831 109.807 47.8777 109.255 47.7106C108.702 47.5435 108.116 47.5202 107.552 47.6429C107.14 47.7188 106.747 47.8777 106.399 48.1101C106.05 48.3424 105.753 48.6434 105.524 48.9945C105.295 49.3244 105.172 49.7166 105.172 50.1184C105.172 50.5202 105.295 50.9123 105.524 51.2422C105.861 51.5479 106.28 51.7472 106.73 51.8152C107.179 51.8831 107.639 51.8167 108.051 51.6242C108.909 51.2216 109.678 50.6523 110.314 49.9494C110.51 49.7799 110.675 49.5757 110.798 49.3471C110.856 49.2352 110.88 49.1088 110.867 48.9835C110.854 48.8582 110.804 48.7395 110.725 48.6419" fill="#0462B6"/>
<path d="M105.671 45.8213C105.979 45.8213 106.185 47.8046 108.065 49.0827C109.946 50.3608 112.105 49.9201 112.15 50.1992C112.194 50.4784 111.709 50.6547 110.783 50.7575C109.592 50.9021 108.388 50.6155 107.39 49.9495C106.434 49.3014 105.762 48.3138 105.509 47.1875C105.348 46.3502 105.539 45.8213 105.671 45.8213Z" fill="#263238"/>
<path d="M51.5202 267.745L30.6442 353.776C30.6442 353.776 5.75757 456.79 4.93487 459.508L4.15625 462.71L39.2238 465.355L99.9861 274.268L51.5202 267.745Z" fill="#263238"/>
<path d="M114.649 328.139C120.32 355.568 141.093 470.643 141.093 470.643L176.66 466.985L156.431 320.206C156.108 316.376 155.329 312.598 154.109 308.953L120.864 209.274L58.3384 169.505C57.7213 169.505 48.2162 195.2 49.5237 213.006C50.2131 220.972 52.9844 228.617 57.5597 235.174C61.541 240.977 67.0796 249.072 68.3136 250.953C70.2969 253.95 114.649 328.139 114.649 328.139Z" fill="#263238"/>
<path d="M43.529 204.059C41.8248 210.259 40.3998 216.532 39.298 222.864C35.302 245.914 25.1358 302.004 18.5395 316.886C10.1803 335.691 -3.39425 406.722 0.778014 419.724C4.95028 432.726 95.8439 445.845 95.8439 445.845C95.8439 445.845 101.059 360.71 106.289 339.305C111.519 317.9 122.449 270.874 124.036 243.196C125.623 215.518 125.079 167.464 116.206 137.7C107.332 107.935 86.9117 76.6582 86.9117 76.6582C86.9117 76.6582 69.4587 81.4769 63.5089 88.4111C63.5089 88.4111 56.2515 97.3138 56.1633 105.791C56.0752 114.267 52.138 154.565 49.5083 177.982C48.6856 184.667 45.7327 196.111 43.529 204.059Z" fill="#0462B6"/>
<path d="M124.123 241.786C124.099 241.645 124.099 241.501 124.123 241.36C124.123 241.037 124.123 240.625 124.123 240.111C124.123 238.965 123.991 237.364 123.888 235.322C123.663 229.418 123.099 223.532 122.199 217.693C121.544 213.676 120.476 209.737 119.011 205.94C117.304 201.617 114.94 197.583 112.003 193.981C108.991 190.117 105.421 186.371 101.954 182.228C100.168 180.143 98.5049 177.955 96.974 175.676C95.406 173.307 94.1099 170.769 93.1103 168.11C90.9144 162.87 90.5928 157.033 92.1994 151.583C93.1932 149.116 94.4806 146.778 96.0338 144.619C96.6776 143.566 97.172 142.429 97.5029 141.24C97.6485 140.67 97.6932 140.078 97.6351 139.492C97.5686 138.928 97.367 138.389 97.0475 137.92C96.3763 136.983 95.4165 136.291 94.3149 135.952C93.2131 135.54 92.0525 135.232 90.9507 134.717C89.8397 134.224 88.8883 133.43 88.2035 132.426C87.5852 131.439 87.1845 130.332 87.0282 129.179C86.7633 127.043 86.8178 124.879 87.1898 122.759C87.4836 120.746 87.7627 118.807 88.0272 116.971C89.1143 109.625 89.9811 103.661 90.5981 99.4883C90.9213 97.4609 91.1564 95.8743 91.3327 94.7284L91.553 93.5091C91.5738 93.3654 91.6032 93.2231 91.6412 93.083C91.6639 93.2241 91.6639 93.368 91.6412 93.5091C91.6412 93.8323 91.6412 94.2436 91.509 94.7578C91.362 95.9037 91.1711 97.4903 90.9066 99.5177C90.3484 103.719 89.555 109.684 88.5854 117.044C88.3357 118.895 88.0712 120.834 87.7921 122.847C87.4459 124.906 87.4014 127.004 87.6599 129.076C87.8178 130.122 88.1931 131.123 88.7617 132.014C89.38 132.925 90.2469 133.639 91.2592 134.071C92.2729 134.541 93.4188 134.835 94.5794 135.261C95.8232 135.65 96.9062 136.434 97.6645 137.494C98.0339 138.055 98.27 138.693 98.355 139.36C98.4244 140.029 98.3746 140.706 98.2081 141.358C97.8623 142.626 97.3275 143.834 96.6215 144.942C95.102 147.068 93.8396 149.366 92.8605 151.789C91.3275 157.075 91.6542 162.727 93.7861 167.802C95.841 172.912 98.7856 177.617 102.483 181.7C105.921 185.813 109.491 189.574 112.517 193.452C115.474 197.181 117.838 201.343 119.525 205.793C120.978 209.62 122.027 213.588 122.654 217.634C123.522 223.473 124.012 229.361 124.123 235.263C124.123 237.31 124.153 238.911 124.211 240.067V241.316C124.138 241.639 124.123 241.786 124.123 241.786Z" fill="#263238"/>
<path d="M112.532 253.422C112.532 253.422 112.606 253.187 112.958 252.952C113.476 252.647 114.088 252.542 114.677 252.658C115.138 252.726 115.569 252.926 115.918 253.233C116.268 253.541 116.52 253.943 116.646 254.391C116.827 254.948 116.816 255.549 116.614 256.099C116.413 256.648 116.033 257.115 115.535 257.423C115.038 257.731 114.451 257.863 113.869 257.798C113.288 257.733 112.744 257.475 112.327 257.065C111.983 256.75 111.739 256.342 111.625 255.891C111.51 255.439 111.529 254.964 111.68 254.524C111.862 253.946 112.249 253.455 112.767 253.143C113.135 252.952 113.37 252.952 113.384 252.996C112.816 253.407 112.402 253.996 112.209 254.671C112.12 255.005 112.127 255.359 112.231 255.689C112.335 256.019 112.532 256.313 112.797 256.536C113.106 256.828 113.503 257.009 113.926 257.051C114.349 257.093 114.774 256.994 115.134 256.769C115.495 256.544 115.771 256.206 115.92 255.808C116.068 255.41 116.081 254.974 115.955 254.568C115.876 254.23 115.703 253.921 115.456 253.677C115.209 253.433 114.898 253.263 114.56 253.187C113.876 253.055 113.168 253.137 112.532 253.422Z" fill="#263238"/>
<path d="M102.795 304.047C102.795 304.047 102.883 303.812 103.235 303.591C103.748 303.273 104.363 303.163 104.954 303.283C105.413 303.354 105.843 303.555 106.191 303.862C106.54 304.169 106.794 304.57 106.923 305.016C107.104 305.573 107.092 306.174 106.891 306.724C106.69 307.273 106.31 307.739 105.812 308.048C105.314 308.356 104.728 308.488 104.146 308.423C103.564 308.358 103.021 308.1 102.604 307.69C102.33 307.427 102.12 307.104 101.991 306.748C101.861 306.391 101.815 306.009 101.856 305.631C101.898 305.254 102.025 304.891 102.228 304.571C102.431 304.25 102.706 303.98 103.03 303.782C103.397 303.577 103.647 303.577 103.647 303.621C103.088 304.041 102.677 304.627 102.471 305.295C102.387 305.632 102.399 305.985 102.505 306.315C102.612 306.644 102.809 306.938 103.074 307.161C103.394 307.43 103.789 307.597 104.205 307.639C104.622 307.68 105.042 307.596 105.41 307.396C105.751 307.153 106.012 306.813 106.158 306.42C106.305 306.028 106.331 305.6 106.232 305.193C106.147 304.845 105.963 304.53 105.702 304.285C105.442 304.039 105.115 303.875 104.763 303.812C104.098 303.698 103.414 303.779 102.795 304.047Z" fill="#263238"/>
<path d="M102.484 240.713C102.508 240.874 102.508 241.037 102.484 241.198C102.484 241.57 102.44 242.06 102.352 242.667C102.22 243.974 102.014 245.825 101.749 248.191C101.191 252.995 100.28 259.943 99.0609 268.494C98.4145 272.769 97.5918 277.441 96.6075 282.421C96.1263 285.024 95.4184 287.58 94.492 290.06C94.3612 290.393 94.2091 290.717 94.0366 291.03C93.8357 291.345 93.588 291.627 93.302 291.867C92.7531 292.343 92.1398 292.738 91.4804 293.042C90.1765 293.636 88.8187 294.104 87.4256 294.438C81.5509 295.658 75.5751 296.327 69.576 296.436C63.1516 296.698 56.718 296.625 50.3013 296.216L49.4786 296.113C49.2921 296.085 49.115 296.013 48.9617 295.903C48.8085 295.793 48.6835 295.649 48.5971 295.481C48.3407 294.957 48.1862 294.388 48.1417 293.806C48.032 292.738 48.0025 291.662 48.0536 290.589C48.0536 288.474 48.318 286.402 48.5531 284.36C49.0379 280.261 49.6696 276.28 50.3307 272.416C51.6529 264.689 53.1073 257.417 54.547 250.762V250.512H54.8849C66.6268 249.492 78.2603 247.472 89.6587 244.474C93.7868 243.387 97.0042 242.402 99.1932 241.741L101.735 240.963C102.004 240.867 102.278 240.788 102.557 240.728L102.337 240.816L101.691 241.051C101.118 241.271 100.339 241.565 99.2519 241.932C97.0923 242.667 93.875 243.695 89.7615 244.87C78.3489 248.012 66.676 250.116 54.8849 251.158L55.1787 250.894C53.7096 257.549 52.3433 264.821 51.0358 272.534C50.3894 276.397 49.7724 280.379 49.3023 284.448C49.0672 286.476 48.8616 288.547 48.8028 290.618C48.7512 291.652 48.7806 292.689 48.8909 293.718C48.9328 294.195 49.0519 294.661 49.2435 295.099C49.3758 295.276 49.4198 295.334 49.5814 295.364L50.3601 295.452C56.747 295.866 63.1514 295.944 69.5466 295.687C75.471 295.585 81.3729 294.931 87.1759 293.733C88.5292 293.418 89.848 292.971 91.1131 292.396C91.7236 292.176 92.2796 291.827 92.7435 291.374C93.2073 290.92 93.5682 290.372 93.8015 289.766C94.722 287.335 95.4299 284.828 95.9171 282.274C96.9748 277.323 97.7681 272.651 98.4439 268.391C99.8102 259.855 100.736 252.936 101.382 248.147C101.705 245.781 101.955 243.93 102.131 242.623C102.22 242.035 102.278 241.55 102.337 241.154C102.396 240.757 102.484 240.713 102.484 240.713Z" fill="#263238"/>
<path d="M101.545 251.423C100.998 251.791 100.412 252.097 99.7968 252.334C98.6509 252.878 96.9468 253.583 94.8312 254.376C83.6954 258.488 71.8802 260.447 60.0134 260.15C57.7363 260.15 55.8999 259.959 54.6512 259.812C53.9926 259.78 53.3385 259.686 52.6973 259.533C53.3514 259.459 54.0117 259.459 54.6659 259.533C55.9293 259.533 57.751 259.621 60.0134 259.621C71.7936 259.616 83.4926 257.67 94.6403 253.862C96.7851 253.128 98.504 252.496 99.6793 252.04C100.279 251.773 100.904 251.567 101.545 251.423Z" fill="#263238"/>
<path d="M19.0996 209.994L19.2318 209.304C19.3347 208.805 19.4816 208.143 19.6726 207.277C20.0986 205.484 20.7156 202.869 21.4943 199.549C23.1103 192.85 25.5637 183.183 28.7516 171.284L34.0257 151.833C35.9356 144.84 37.9482 137.362 40.3429 129.561C42.7938 121.379 45.8229 113.382 49.4073 105.629C51.332 101.538 53.5055 97.5692 55.9154 93.7441C57.1165 91.7517 58.4775 89.8601 59.9848 88.088C61.5065 86.2518 63.3924 84.7511 65.5234 83.6807C67.7329 82.5847 70.2804 82.3847 72.6339 83.1224C74.8905 83.9229 76.8624 85.3686 78.3046 87.28C81.2428 91.0703 81.9774 95.8302 82.4034 100.193C83.1527 109.008 83.8725 117.558 84.563 125.682C85.9146 141.916 87.1339 156.534 88.1623 168.815C89.1907 181.097 89.9693 190.999 90.5276 197.904C90.792 201.312 90.9977 203.971 91.1299 205.822C91.1299 206.704 91.2327 207.379 91.2768 207.879C91.2899 208.114 91.2899 208.349 91.2768 208.584C91.2768 208.584 91.2768 208.349 91.174 207.894C91.0711 207.438 91.0564 206.704 90.9683 205.837L90.2191 197.933C89.602 191.028 88.7499 181.112 87.6187 168.859C86.4875 156.607 85.2682 141.96 83.8431 125.741C83.138 117.617 82.374 109.096 81.6395 100.267C81.2134 95.933 80.4789 91.3053 77.7023 87.7501C76.3518 85.9631 74.5083 84.6099 72.3988 83.857C70.2358 83.1703 67.8903 83.3548 65.8613 84.3712C63.8197 85.4121 62.0144 86.8624 60.5578 88.6316C59.0768 90.3551 57.7402 92.1977 56.5618 94.1407C54.166 97.9234 52.0024 101.848 50.0831 105.894C46.5075 113.61 43.4786 121.567 41.0187 129.708C38.6093 137.479 36.6114 144.957 34.6428 151.935C32.6742 158.914 30.9112 165.422 29.2805 171.357C26.0191 183.242 23.4922 192.894 21.7881 199.564C20.936 202.884 20.319 205.44 19.8342 207.262C19.5991 208.114 19.4375 208.731 19.3053 209.26C19.1731 209.789 19.0996 209.994 19.0996 209.994Z" fill="#455A64"/>
<path d="M15.4994 204.926C14.9265 207.218 4.24609 267.995 4.24609 267.995L83.7101 270.565L94.6549 207.541L15.4994 204.926Z" fill="#263238"/>
<path d="M93.8322 208.731C93.6099 208.934 93.3689 209.116 93.1123 209.274C92.6422 209.612 91.9076 210.082 90.9674 210.743C89.1016 211.948 86.3397 213.682 82.8726 215.606C79.4055 217.531 75.2186 219.837 70.444 222.1C68.0493 223.216 65.5666 224.406 62.8193 225.39C59.9754 226.317 56.9949 226.754 54.0047 226.683C48.1771 226.412 42.4714 224.921 37.2569 222.305C33.057 220.198 29.1135 217.615 25.504 214.607C22.4042 212.08 20.0536 209.862 18.4523 208.319C17.659 207.541 16.9832 206.924 16.6306 206.498C16.4151 206.29 16.2185 206.064 16.043 205.822C16.2964 205.983 16.5327 206.17 16.7481 206.38C17.2329 206.835 17.8794 207.394 18.658 208.099C20.3181 209.568 22.7127 211.728 25.8419 214.181C29.4708 217.088 33.4129 219.582 37.5948 221.615C42.6986 224.105 48.2581 225.525 53.9312 225.787C56.8546 225.862 59.7699 225.445 62.5549 224.553C65.1993 223.598 67.7408 222.423 70.1208 221.336C74.8807 219.102 79.0823 216.928 82.5788 215.004C86.0753 213.079 88.8666 211.478 90.7911 210.361L93.0095 209.069C93.2666 208.918 93.5435 208.804 93.8322 208.731Z" fill="#455A64"/>
<path d="M88.9683 211.405C89.174 211.405 87.0438 224.627 84.2084 240.978C81.373 257.329 78.9049 270.434 78.6993 270.434C78.4936 270.434 80.6238 257.212 83.4592 240.875C86.2945 224.539 88.7626 211.375 88.9683 211.405Z" fill="#455A64"/>
<path d="M51.5924 224.216C51.372 226.184 51.1663 228.168 50.946 230.092C50.8357 230.709 50.8357 231.341 50.946 231.958C51.0154 232.266 51.1667 232.551 51.3838 232.781C51.6009 233.011 51.8759 233.178 52.18 233.265C52.5429 233.301 52.9079 233.223 53.224 233.041C53.5402 232.859 53.7915 232.583 53.943 232.252C54.2333 231.579 54.3785 230.854 54.369 230.121C54.4718 228.006 54.5894 225.89 54.7069 223.79H52.1213" fill="#455A64"/>
<path d="M67.9603 84.6794C74.4243 82.5051 79.816 90.879 80.5505 97.6516C81.3322 105.462 81.4796 113.323 80.9912 121.157C79.8306 144.31 69.3559 166.45 69.3559 166.45L135.818 176.41L133.38 201.973L49.332 192.953C46.4108 192.642 43.5944 191.689 41.0847 190.162C38.575 188.635 36.434 186.572 34.8151 184.121C33.1963 181.669 32.1397 178.89 31.721 175.983C31.3023 173.075 31.5318 170.111 32.3932 167.302C39.9003 142.812 52.1674 107.597 54.8852 101.765C58.6461 93.9054 59.0722 87.647 67.9603 84.6794Z" fill="#0462B6"/>
<path d="M46.1582 192.277H46.5989L47.8624 192.453L52.7251 193.187C56.9855 193.775 63.1705 194.656 70.942 195.553C86.4852 197.389 108.316 199.563 133.394 201.429L132.997 201.767C133.776 193.643 134.598 185.063 135.436 176.249L135.759 176.66L69.3113 166.655H68.944L69.0616 166.317C73.3808 152.949 76.6862 141.886 78.6548 134.1C79.6538 130.221 80.3443 127.151 80.7704 125.065L81.2552 122.685C81.3727 122.156 81.4461 121.877 81.4461 121.877C81.4461 121.877 81.4461 122.156 81.358 122.7C81.2698 123.243 81.1523 124.051 80.9466 125.109C80.5794 127.21 79.933 130.28 78.9927 134.188C77.127 142.004 73.9096 153.11 69.6492 166.508L69.3848 166.112L135.877 175.969H136.229V176.337C135.392 185.151 134.569 193.716 133.79 201.855V202.222H133.438C108.345 200.254 86.5146 197.977 70.9714 196.008C63.2145 195.038 57.0296 194.098 52.7839 193.422L47.833 192.57L46.5842 192.335L46.1582 192.277Z" fill="#263238"/>
<path d="M120.291 200.827C120.309 196.407 120.589 191.992 121.128 187.605C121.404 183.17 121.943 178.755 122.744 174.383C122.708 178.803 122.423 183.217 121.892 187.605C121.611 192.039 121.076 196.454 120.291 200.827Z" fill="#263238"/>
<path d="M128.737 178.717C128.737 178.717 128.914 178.614 129.237 178.717C129.705 178.82 130.115 179.099 130.383 179.496C130.606 179.796 130.736 180.155 130.757 180.529C130.778 180.902 130.689 181.273 130.5 181.597C130.272 181.997 129.925 182.316 129.506 182.509C129.087 182.701 128.619 182.758 128.166 182.67C127.714 182.583 127.3 182.355 126.984 182.021C126.667 181.686 126.463 181.26 126.401 180.803C126.338 180.444 126.368 180.073 126.489 179.729C126.61 179.384 126.818 179.076 127.092 178.835C128.047 178.027 128.884 178.306 128.84 178.379C128.796 178.453 128.12 178.497 127.474 179.217C127.294 179.411 127.164 179.647 127.098 179.903C127.031 180.159 127.029 180.428 127.092 180.686C127.16 180.988 127.31 181.266 127.525 181.488C127.74 181.711 128.012 181.871 128.311 181.949C128.615 181.991 128.925 181.948 129.205 181.823C129.486 181.698 129.725 181.498 129.898 181.244C130.027 181.021 130.095 180.767 130.095 180.509C130.095 180.252 130.027 179.998 129.898 179.775C129.457 178.879 128.723 178.835 128.737 178.717Z" fill="#263238"/>
<path d="M150.141 168.874L153.167 200.357H168.519L172.192 168.874H150.141Z" fill="#EBEBEB"/>
<path d="M150.143 164.804C149.19 165.98 148.671 167.448 148.674 168.962H173.649C173.769 168.201 173.698 167.423 173.441 166.697C173.185 165.971 172.751 165.32 172.18 164.804H150.143Z" fill="#455A64"/>
<path d="M152.976 161.911L152.139 165.025L170.958 165.172L169.709 161.881L152.976 161.911Z" fill="#455A64"/>
<path d="M149.818 176.749C149.818 177.043 151.655 192.601 151.655 192.601H170.415L172.193 176.749H149.818Z" fill="#455A64"/>
<path d="M150.993 173.972L150.508 179.246L168.666 179.672C168.666 179.672 168.666 185.798 166.83 187.634C166.83 187.634 168.666 191.307 166.624 193.349C164.582 195.391 163.363 194.818 163.363 194.818C163.363 194.818 164.185 198.902 162.143 199.931C160.101 200.959 133.613 199.372 133.613 199.372L135.244 182.287L141.12 181.773C141.37 176.116 147.217 173.31 150.993 173.972Z" fill="#FFBE9D"/>
<path d="M128.003 13.4868C127.014 10.4292 124.966 7.82462 122.229 6.14127C120.363 5.07872 118.207 4.63631 116.073 4.87783V4.4371C114.105 0.896552 110.197 0.132615 106.172 0.808404C102.146 1.48419 98.1797 4.4224 94.5951 6.33224C89.747 8.91786 85.1193 11.8708 80.477 14.8237C76.6279 17.2771 72.6907 19.8333 70.0316 23.5355C68.6445 25.4976 67.6614 27.716 67.1393 30.0615C66.6172 32.407 66.5667 34.8329 66.9906 37.1982C67.9455 42.3547 71.1187 47.5701 69.2383 52.4622C67.9749 55.7089 64.831 57.751 62.6861 60.5423C61.0544 62.7316 60.1499 65.3773 60.0999 68.1074C60.0498 70.8374 60.8566 73.5145 62.407 75.7622C64.5519 78.7004 67.828 80.3752 70.8249 82.3438C75.5701 85.473 79.8159 89.4102 84.9283 91.9224C90.0408 94.4346 96.5196 95.2426 101.221 92.0399C105.922 88.8373 107.626 82.1234 106.759 76.3205C105.892 70.5175 103.101 65.2287 100.883 59.8077C97.9563 52.7437 95.9277 45.3403 94.8448 37.7711C94.4188 34.7448 94.1837 31.5127 95.6088 28.8243C96.9016 26.4149 99.3256 24.8724 101.485 23.227C106.633 19.3465 110.924 14.4451 114.09 8.82971C115.184 11.5484 116.911 13.9662 119.129 15.8814C122.1 18.6413 125.424 20.993 129.016 22.8744C129.335 19.7087 128.99 16.5114 128.003 13.4868Z" fill="#263238"/>
</svg>
