<svg width="45" height="46" viewBox="0 0 45 46" fill="none" xmlns="http://www.w3.org/2000/svg">
<path d="M3.98631 43.4014V6.2338C3.9863 5.70298 4.19645 5.19376 4.57082 4.81744C4.94519 4.44113 5.45331 4.22833 5.98412 4.22558H32.8921C33.3566 4.22969 33.8171 4.31056 34.2552 4.4649C33.9995 3.50507 33.4351 2.65601 32.6491 2.04864C31.8631 1.44128 30.8991 1.10934 29.9058 1.104H5.52629C4.32753 1.10948 3.17943 1.58811 2.33177 2.43577C1.48411 3.28343 1.00547 4.43153 1 5.63029V40.2798C1.00333 41.2319 1.3068 42.1587 1.86722 42.9283C2.42765 43.698 3.21651 44.2713 4.12158 44.5668C4.02381 44.1863 3.9783 43.7942 3.98631 43.4014Z" fill="#ECECEC"/>
<path d="M34.4321 31.7892V40.1134C34.4266 41.3121 33.948 42.4602 33.1003 43.3079C32.2527 44.1556 31.1046 44.6342 29.9058 44.6397H5.52629C4.32753 44.6342 3.17943 44.1556 2.33177 43.3079C1.48411 42.4602 1.00547 41.3121 1 40.1134V5.52629C1.00547 4.32753 1.48411 3.17943 2.33177 2.33177C3.17943 1.48411 4.32753 1.00547 5.52629 1H29.9058C31.1046 1.00547 32.2527 1.48411 33.1003 2.33177C33.948 3.17943 34.4266 4.32753 34.4321 5.52629V17.0969" stroke="#0462B6" stroke-width="1.5" stroke-miterlimit="10"/>
<path d="M34.6609 26.8051L43.0683 18.3977C43.6844 17.7279 44.0177 16.8459 43.9987 15.9361C43.9797 15.0263 43.6098 14.159 42.9663 13.5156C42.3229 12.8721 41.4556 12.5022 40.5458 12.4832C39.636 12.4642 38.754 12.7975 38.0842 13.4136L24.6406 26.8051L27.7622 29.9267L29.5831 31.7476" stroke="#0462B6" stroke-width="1.5" stroke-linecap="round" stroke-linejoin="round"/>
<path d="M29.6764 31.7888L20.707 35.7116L24.6818 26.8047" stroke="#0462B6" stroke-width="1.5" stroke-linecap="round" stroke-linejoin="round"/>
<path d="M9.24219 9.38672H24.746" stroke="#0462B6" stroke-width="1.5" stroke-linecap="round" stroke-linejoin="round"/>
<path d="M9.24219 14.3916H21.6557" stroke="#0462B6" stroke-width="1.5" stroke-linecap="round" stroke-linejoin="round"/>
<path d="M9.24219 19.3862H17.7225" stroke="#0462B6" stroke-width="1.5" stroke-linecap="round" stroke-linejoin="round"/>
</svg>
